<svg width="59" height="50" viewBox="0 0 59 30" fill="none" xmlns="http://www.w3.org/2000/svg">
<path fill-rule="evenodd" clip-rule="evenodd" d="M58.6984 27.8713V29.8344H52.1633V22.258H58.5581V24.221H54.8822V25.1625H57.8462V26.976H54.8822V27.8719H58.6984V27.8713ZM48.6397 29.8344L47.2743 27.3204H46.5275V29.8344H43.8667V22.258H48.0447C49.0715 22.258 49.8475 22.4706 50.3727 22.8958C50.8979 23.321 51.1605 23.9542 51.1604 24.7955C51.1604 25.9052 50.6975 26.6514 49.7717 27.034L51.5921 29.835H48.6394L48.6397 29.8344ZM48.2254 24.3243C48.0811 24.2173 47.838 24.1637 47.4961 24.1636H46.5275V25.564H47.4961C47.8384 25.564 48.0815 25.5124 48.2254 25.4091C48.3642 25.2613 48.4412 25.0677 48.4411 24.8666C48.4411 24.6656 48.3639 24.472 48.2251 24.3243H48.2254ZM39.0826 29.9492C36.6008 29.9492 35.36 28.8242 35.3601 26.5742V22.258H38.0908V26.7808C38.068 27.0897 38.1568 27.3966 38.3416 27.6475C38.4345 27.7482 38.5494 27.8269 38.6778 27.8776C38.8061 27.9283 38.9445 27.9497 39.0826 27.9403C39.2214 27.9493 39.3606 27.9277 39.4898 27.877C39.619 27.8264 39.7351 27.7479 39.8294 27.6475C40.018 27.3982 40.1091 27.0906 40.0862 26.7808V22.258H42.8052V26.5742C42.805 28.8243 41.564 29.9493 39.0823 29.9492H39.0826ZM32.2445 29.8344H29.5253V24.221H27.1097V22.258H34.648V24.221H32.2442V29.8344H32.2445ZM22.6758 29.9492C20.1941 29.9492 18.9532 28.8242 18.9532 26.5742V22.258H21.6839V26.7808C21.6611 27.0897 21.7499 27.3966 21.9347 27.6475C22.0276 27.7482 22.1426 27.8268 22.271 27.8776C22.3994 27.9283 22.5378 27.9497 22.6758 27.9403C22.8147 27.9493 22.9538 27.9277 23.0831 27.877C23.2123 27.8264 23.3283 27.7479 23.4227 27.6475C23.6112 27.3981 23.7023 27.0906 23.6794 26.7808V22.258H26.3983V26.5742C26.3981 28.8243 25.1572 29.9493 22.6755 29.9492H22.6758ZM14.6123 25.277H17.5763V27.2401H14.6119V29.8344H11.8932V22.258H18.2761V24.221H14.6115V25.277H14.6123ZM32.2883 7.70505H29.2533L27.8232 4.88388L27.1952 5.7291V7.70505H24.486V0.166484H27.1952V2.97581L29.1952 0.166484H32.0789L29.7302 3.1591L32.2883 7.70505ZM20.3234 5.82098C20.6877 5.82098 20.9512 5.741 21.1141 5.58105C21.3034 5.35894 21.4136 5.0822 21.428 4.79292L23.8233 5.39821C23.4281 7.01234 22.246 7.81935 20.277 7.81924C19.5535 7.8379 18.8365 7.68095 18.1895 7.36231C17.6116 7.06507 17.1407 6.60051 16.8407 6.0316C16.5111 5.38157 16.3494 4.66188 16.3699 3.93599C16.3494 3.21011 16.5111 2.49042 16.8407 1.84039C17.1408 1.27152 17.6117 0.806978 18.1895 0.509678C18.8365 0.191131 19.5535 0.0341864 20.277 0.0527444C21.0828 0.0292366 21.8795 0.224891 22.5792 0.618103C22.8922 0.802785 23.1604 1.05225 23.3653 1.34912C23.5701 1.646 23.7066 1.98315 23.7652 2.33711L21.4396 3.22804C21.3778 2.76367 21.2654 2.45145 21.1025 2.2914C20.999 2.20431 20.8788 2.13828 20.7491 2.09712C20.6193 2.05596 20.4826 2.04049 20.3467 2.05162C20.1678 2.04191 19.9896 2.07912 19.8302 2.15942C19.6708 2.23971 19.536 2.36021 19.4397 2.50855C19.238 2.81317 19.1373 3.28899 19.1374 3.93599C19.1375 4.583 19.2344 5.05882 19.4281 5.36344C19.5211 5.51217 19.6536 5.63328 19.8113 5.71387C19.9689 5.79445 20.1459 5.83147 20.3234 5.82098ZM13.6839 7.70505L13.335 6.26591H11.2652L10.9048 7.70505H8.20719L10.6956 0.166484H13.9512L16.4512 7.70505H13.6834H13.6839ZM12.3232 2.09687H12.2885L11.9859 3.3761L11.672 4.60963H12.94L12.3232 2.09687ZM5.03288 4.89466H2.92827V7.70399H0.218915V0.166484H2.92827V2.9421H5.03288V0.166484H7.74208V7.70505H5.03288V4.89466ZM11.7477 16.935V18.9433C11.7477 18.9433 7.70559 19.1278 7.9117 14.8811C7.94758 10.9236 11.7324 11.1842 11.7324 11.1842V13.1316C11.7324 13.1316 10.6138 13.0423 10.65 15.0333C10.6862 17.0243 11.5156 16.89 11.7477 16.9356V16.935ZM26.5659 13.0555V11.048C26.5659 11.048 30.3747 10.7027 30.4175 15.0037C30.383 19.0459 26.5814 18.8374 26.5814 18.8374V16.8747C26.5814 16.8747 27.7606 16.8793 27.6638 14.8362C27.567 12.7931 26.5658 13.0561 26.5658 13.0561L26.5659 13.0555ZM47.3952 18.7389H44.4419L43.0758 16.2251H42.3285V18.7389H39.6657V11.163H43.8457C44.8733 11.163 45.6498 11.3755 46.1751 11.8007C46.7004 12.2259 46.9633 12.8592 46.9637 13.7005C46.9637 14.8102 46.5005 15.5563 45.5742 15.9388L47.3952 18.7389ZM44.0267 13.2291C43.8824 13.122 43.6391 13.0684 43.2969 13.0684H42.3278V14.4688H43.2977C43.6401 14.4688 43.8834 14.4172 44.0275 14.3138C44.1663 14.166 44.2433 13.9723 44.2431 13.7713C44.243 13.5703 44.1657 13.3767 44.0267 13.2291ZM34.9486 18.8537C32.4656 18.8537 31.224 17.7288 31.224 15.479V11.163H33.9562V15.6855C33.9334 15.9944 34.0223 16.3013 34.2072 16.5522C34.3002 16.6529 34.4152 16.7315 34.5437 16.7823C34.6721 16.833 34.8106 16.8544 34.9486 16.8449C35.0876 16.854 35.2268 16.8324 35.3561 16.7817C35.4854 16.7311 35.6015 16.6526 35.6959 16.5522C35.8846 16.3029 35.9757 15.9953 35.9528 15.6855V11.163H38.6733V15.479C38.6733 17.7288 37.4317 18.8537 34.9486 18.8537ZM5.51315 18.7389H2.79266V16.1103L0.0952148 11.163H2.80426L3.62161 12.8962L4.17038 14.2737L4.71853 12.8962L5.5365 11.163H8.21028L5.51315 16.1103V18.7389Z" fill="#293A7D"/>
</svg>
