<svg width="59" height="30" viewBox="0 0 59 30" fill="none" xmlns="http://www.w3.org/2000/svg">
<path fill-rule="evenodd" clip-rule="evenodd" d="M59 27.9151V29.8848H52.4206V22.2827H58.8588V24.2524H55.158V25.1971H58.1421V27.0167H55.158V27.9157H59V27.9151ZM48.8732 29.8848L47.4986 27.3623H46.7467V29.8848H44.0679V22.2827H48.2741C49.3079 22.2827 50.0892 22.496 50.6179 22.9226C51.1467 23.3493 51.4111 23.9847 51.4109 24.8288C51.4109 25.9423 50.9449 26.691 50.0128 27.0749L51.8456 29.8854H48.8729L48.8732 29.8848ZM48.4561 24.356C48.3108 24.2486 48.0661 24.1949 47.7218 24.1948H46.7467V25.6H47.7218C48.0665 25.6 48.3112 25.5481 48.4561 25.4445C48.5958 25.2962 48.6733 25.1019 48.6733 24.9002C48.6732 24.6985 48.5956 24.5042 48.4558 24.356H48.4561ZM39.2513 30C36.7528 30 35.5036 28.8712 35.5037 26.6135V22.2827H38.2529V26.8209C38.2299 27.1308 38.3193 27.4387 38.5054 27.6905C38.5989 27.7915 38.7146 27.8705 38.8438 27.9214C38.9731 27.9723 39.1124 27.9938 39.2513 27.9843C39.3911 27.9934 39.5312 27.9717 39.6613 27.9208C39.7914 27.87 39.9083 27.7913 40.0032 27.6905C40.1931 27.4403 40.2849 27.1317 40.2618 26.8209V22.2827H42.9992V26.6135C42.999 28.8713 41.7496 30.0001 39.251 30H39.2513ZM32.367 29.8848H29.6294V24.2524H27.1974V22.2827H34.7868V24.2524H32.3667V29.8848H32.367ZM22.7335 30C20.235 30 18.9857 28.8712 18.9857 26.6135V22.2827H21.7349V26.8209C21.7119 27.1308 21.8013 27.4387 21.9874 27.6905C22.0809 27.7915 22.1967 27.8705 22.3259 27.9214C22.4552 27.9722 22.5946 27.9938 22.7335 27.9843C22.8733 27.9933 23.0134 27.9717 23.1435 27.9208C23.2736 27.87 23.3904 27.7913 23.4854 27.6905C23.6752 27.4403 23.7669 27.1317 23.7438 26.8209V22.2827H26.4812V26.6135C26.481 28.8713 25.2317 30.0001 22.7332 30H22.7335ZM14.6153 25.312H17.5994V27.2817H14.615V29.8848H11.8778V22.2827H18.304V24.2524H14.6146V25.312H14.6153ZM32.4111 7.68023H29.3555L27.9157 4.84947L27.2835 5.69757V7.68023H24.556V0.116028H27.2835V2.93491L29.297 0.116028H32.2003L29.8356 3.11882L32.4111 7.68023ZM20.3651 5.78975C20.7319 5.78975 20.9973 5.70951 21.1612 5.54901C21.3518 5.32615 21.4628 5.04846 21.4772 4.7582L23.8888 5.36555C23.4909 6.98516 22.3008 7.79492 20.3184 7.79482C19.59 7.81353 18.8682 7.65605 18.2168 7.33633C17.635 7.03808 17.1609 6.57194 16.8589 6.00109C16.5271 5.34885 16.3643 4.62672 16.3849 3.89836C16.3643 3.17 16.5271 2.44787 16.8589 1.79562C17.161 1.22482 17.6351 0.7587 18.2168 0.460388C18.8682 0.140758 19.59 -0.0167202 20.3184 0.00190091C21.1297 -0.0216869 21.9318 0.174633 22.6362 0.569182C22.9513 0.754493 23.2214 1.0048 23.4276 1.30269C23.6338 1.60058 23.7712 1.93888 23.8302 2.29403L21.4889 3.188C21.4267 2.72205 21.3135 2.40877 21.1496 2.24817C21.0453 2.16079 20.9243 2.09453 20.7937 2.05323C20.6631 2.01193 20.5254 1.99641 20.3886 2.00757C20.2085 1.99784 20.0291 2.03517 19.8686 2.11574C19.7081 2.19631 19.5724 2.31722 19.4754 2.46606C19.2724 2.77172 19.171 3.24915 19.1711 3.89836C19.1712 4.54757 19.2688 5.025 19.4638 5.33066C19.5575 5.47989 19.6908 5.60142 19.8495 5.68228C20.0083 5.76314 20.1865 5.80028 20.3651 5.78975ZM13.6807 7.68023L13.3295 6.23621H11.2456L10.8828 7.68023H8.16691L10.6722 0.116028H13.9498L16.4668 7.68023H13.6802H13.6807ZM12.3108 2.05298H12.2759L11.9712 3.33656L11.6552 4.57428H12.9317L12.3108 2.05298ZM4.9711 4.86028H2.85224V7.67917H0.124538V0.116028H2.85224V2.90108H4.9711V0.116028H7.69864V7.68023H4.9711V4.86028ZM11.7313 16.9416V18.9567C11.7313 18.9567 7.6619 19.1418 7.86942 14.8807C7.90553 10.9098 11.7159 11.1712 11.7159 11.1712V13.1253C11.7159 13.1253 10.5898 13.0357 10.6262 15.0334C10.6627 17.0312 11.4977 16.8965 11.7313 16.9422V16.9416ZM26.6499 13.0489V11.0346C26.6499 11.0346 30.4845 10.6881 30.5276 15.0037C30.4929 19.0597 26.6655 18.8505 26.6655 18.8505V16.8811C26.6655 16.8811 27.8527 16.8856 27.7552 14.8356C27.6578 12.7856 26.6498 13.0495 26.6498 13.0495L26.6499 13.0489ZM47.6203 18.7516H44.647L43.2716 16.2292H42.5192V18.7516H39.8384V11.1499H44.0467C45.0813 11.1499 45.863 11.3632 46.3919 11.7899C46.9208 12.2165 47.1854 12.8519 47.1858 13.696C47.1858 14.8096 46.7195 15.5582 45.787 15.942L47.6203 18.7516ZM44.229 13.2231C44.0837 13.1156 43.8388 13.0619 43.4942 13.0619H42.5186V14.467H43.495C43.8397 14.467 44.0847 14.4152 44.2298 14.3115C44.3695 14.1632 44.447 13.9688 44.4468 13.7671C44.4467 13.5654 44.3689 13.3712 44.229 13.2231ZM35.0894 18.8668C32.5895 18.8668 31.3396 17.7381 31.3396 15.4806V11.1499H34.0903V15.6878C34.0673 15.9978 34.1568 16.3057 34.343 16.5574C34.4366 16.6585 34.5524 16.7374 34.6817 16.7883C34.811 16.8392 34.9504 16.8607 35.0894 16.8512C35.2293 16.8603 35.3695 16.8386 35.4996 16.7878C35.6298 16.737 35.7467 16.6583 35.8418 16.5574C36.0317 16.3073 36.1235 15.9987 36.1004 15.6878V11.1499H38.8393V15.4806C38.8393 17.7381 37.5893 18.8668 35.0894 18.8668ZM5.45462 18.7516H2.71571V16.114L0 11.1499H2.72739L3.55027 12.8891L4.10276 14.2712L4.65462 12.8891L5.47813 11.1499H8.17002L5.45462 16.114V18.7516Z" fill="#293A7D"/>
</svg>
